STARTFONT 2.1
FONT -Monotype-Bookman Old Style-Regular-R-Normal--14-140-75-75-P-71-iso8859-2
SIZE 14 75 75
FONTBOUNDINGBOX 22 18 -3 -4

STARTPROPERTIES 24
FOUNDRY "Monotype"
FAMILY_NAME "Bookman Old Style"
WEIGHT_NAME "Regular"
SLANT "R"
SETWIDTH_NAME "Normal"
ADD_STYLE_NAME ""
PIXEL_SIZE 14
POINT_SIZE 140
RESOLUTION_X 75
RESOLUTION_Y 75
SPACING "P"
AVERAGE_WIDTH 71
CHARSET_REGISTRY "iso8859"
CHARSET_ENCODING "2"
FACE_NAME "Bookman Old Style ISO Latin2"
_DEC_DEVICE_FONTNAMES "PS=bookmanoldstyle-lat2"
COPYRIGHT "Copyright (c) 1994 Monotype Typography Ltd."
CAP_HEIGHT 12
X_HEIGHT 8
WEIGHT 10
QUAD_WIDTH 8
DEFAULT_CHAR 160
FONT_DESCENT 4
FONT_ASCENT 14
ENDPROPERTIES

CHARS 191

STARTCHAR space
ENCODING 32
SWIDTH 320 0
DWIDTH 5 0
BBX 0 0 0 0
BITMAP
ENDCHAR

STARTCHAR exclam
ENCODING 33
SWIDTH 300 0
DWIDTH 5 0
BBX 1 11 2 0
BITMAP
80
80
80
80
80
80
80
80
00
80
80
ENDCHAR

STARTCHAR quotedbl
ENCODING 34
SWIDTH 380 0
DWIDTH 6 0
BBX 3 4 2 6
BITMAP
A0
A0
A0
A0
ENDCHAR

STARTCHAR numbersign
ENCODING 35
SWIDTH 600 0
DWIDTH 9 0
BBX 9 10 0 0
BITMAP
1200
1200
1200
7F80
1200
2400
FF00
2400
2400
2400
ENDCHAR

STARTCHAR dollar
ENCODING 36
SWIDTH 620 0
DWIDTH 9 0
BBX 7 13 1 -2
BITMAP
10
7C
92
92
90
70
1C
12
92
92
7C
10
10
ENDCHAR

STARTCHAR percent
ENCODING 37
SWIDTH 900 0
DWIDTH 13 0
BBX 13 10 0 0
BITMAP
7060
8840
8880
8900
8970
7288
0488
0488
0888
1870
ENDCHAR

STARTCHAR ampersand
ENCODING 38
SWIDTH 800 0
DWIDTH 12 0
BBX 11 10 1 0
BITMAP
3800
4400
4400
39C0
4880
8480
8740
8260
C720
78C0
ENDCHAR

STARTCHAR quoteright
ENCODING 39
SWIDTH 220 0
DWIDTH 3 0
BBX 3 5 0 6
BITMAP
60
20
20
40
80
ENDCHAR

STARTCHAR parenleft
ENCODING 40
SWIDTH 300 0
DWIDTH 5 0
BBX 3 14 1 -3
BITMAP
20
40
40
80
80
80
80
80
80
80
80
40
40
20
ENDCHAR

STARTCHAR parenright
ENCODING 41
SWIDTH 300 0
DWIDTH 5 0
BBX 3 14 1 -3
BITMAP
80
40
40
20
20
20
20
20
20
20
20
40
40
80
ENDCHAR

STARTCHAR asterisk
ENCODING 42
SWIDTH 440 0
DWIDTH 7 0
BBX 5 5 1 5
BITMAP
20
F8
20
50
50
ENDCHAR

STARTCHAR plus
ENCODING 43
SWIDTH 600 0
DWIDTH 9 0
BBX 7 7 1 2
BITMAP
10
10
10
FE
10
10
10
ENDCHAR

STARTCHAR comma
ENCODING 44
SWIDTH 320 0
DWIDTH 5 0
BBX 3 5 1 -3
BITMAP
60
20
20
40
80
ENDCHAR

STARTCHAR minus
ENCODING 45
SWIDTH 600 0
DWIDTH 9 0
BBX 7 1 1 5
BITMAP
FE
ENDCHAR

STARTCHAR period
ENCODING 46
SWIDTH 320 0
DWIDTH 5 0
BBX 1 2 2 0
BITMAP
80
80
ENDCHAR

STARTCHAR slash
ENCODING 47
SWIDTH 600 0
DWIDTH 9 0
BBX 5 14 2 -3
BITMAP
08
08
08
10
10
10
20
20
40
40
40
80
80
80
ENDCHAR

STARTCHAR zero
ENCODING 48
SWIDTH 620 0
DWIDTH 9 0
BBX 7 10 1 0
BITMAP
38
44
C6
82
82
82
82
C6
44
38
ENDCHAR

STARTCHAR one
ENCODING 49
SWIDTH 620 0
DWIDTH 9 0
BBX 5 10 2 0
BITMAP
20
E0
20
20
20
20
20
20
20
F8
ENDCHAR

STARTCHAR two
ENCODING 50
SWIDTH 620 0
DWIDTH 9 0
BBX 7 10 1 0
BITMAP
3C
46
82
82
06
04
08
30
42
FE
ENDCHAR

STARTCHAR three
ENCODING 51
SWIDTH 620 0
DWIDTH 9 0
BBX 7 10 1 0
BITMAP
3C
46
42
02
1C
02
02
82
C6
7C
ENDCHAR

STARTCHAR four
ENCODING 52
SWIDTH 620 0
DWIDTH 9 0
BBX 8 10 1 0
BITMAP
04
0C
14
24
44
84
FF
04
04
04
ENDCHAR

STARTCHAR five
ENCODING 53
SWIDTH 620 0
DWIDTH 9 0
BBX 7 10 1 0
BITMAP
7C
40
40
7C
06
02
02
82
C4
78
ENDCHAR

STARTCHAR six
ENCODING 54
SWIDTH 620 0
DWIDTH 9 0
BBX 7 10 1 0
BITMAP
0E
30
40
B8
C4
82
82
82
44
38
ENDCHAR

STARTCHAR seven
ENCODING 55
SWIDTH 620 0
DWIDTH 9 0
BBX 7 10 1 0
BITMAP
7E
C2
86
04
0C
08
18
10
30
20
ENDCHAR

STARTCHAR eight
ENCODING 56
SWIDTH 620 0
DWIDTH 9 0
BBX 7 10 1 0
BITMAP
38
44
44
64
38
4C
82
82
82
7C
ENDCHAR

STARTCHAR nine
ENCODING 57
SWIDTH 620 0
DWIDTH 9 0
BBX 7 10 1 0
BITMAP
38
44
82
82
82
46
3A
04
18
E0
ENDCHAR

STARTCHAR colon
ENCODING 58
SWIDTH 320 0
DWIDTH 5 0
BBX 1 7 2 0
BITMAP
80
80
00
00
00
80
80
ENDCHAR

STARTCHAR semicolon
ENCODING 59
SWIDTH 320 0
DWIDTH 5 0
BBX 3 10 1 -3
BITMAP
40
40
00
00
00
60
20
20
40
80
ENDCHAR

STARTCHAR less
ENCODING 60
SWIDTH 600 0
DWIDTH 9 0
BBX 7 7 1 2
BITMAP
02
0C
30
C0
30
0C
02
ENDCHAR

STARTCHAR equal
ENCODING 61
SWIDTH 600 0
DWIDTH 9 0
BBX 7 3 1 4
BITMAP
FE
00
FE
ENDCHAR

STARTCHAR greater
ENCODING 62
SWIDTH 600 0
DWIDTH 9 0
BBX 7 7 1 2
BITMAP
80
60
18
06
18
60
80
ENDCHAR

STARTCHAR question
ENCODING 63
SWIDTH 540 0
DWIDTH 8 0
BBX 7 11 1 0
BITMAP
7C
C6
02
02
02
06
3C
20
00
20
20
ENDCHAR

STARTCHAR at
ENCODING 64
SWIDTH 820 0
DWIDTH 12 0
BBX 12 13 0 -3
BITMAP
0FC0
1020
2010
4390
4490
8890
9190
9110
9760
5990
4010
3060
0F80
ENDCHAR

STARTCHAR A
ENCODING 65
SWIDTH 680 0
DWIDTH 10 0
BBX 10 10 0 0
BITMAP
0C00
0C00
1200
1200
2100
3F00
2100
4080
4080
E1C0
ENDCHAR

STARTCHAR B
ENCODING 66
SWIDTH 740 0
DWIDTH 11 0
BBX 9 10 1 0
BITMAP
FE00
4100
4080
4100
7E00
4100
4080
4080
4100
FE00
ENDCHAR

STARTCHAR C
ENCODING 67
SWIDTH 740 0
DWIDTH 11 0
BBX 9 10 1 0
BITMAP
1F00
6180
4080
8000
8000
8000
8000
4080
6100
1E00
ENDCHAR

STARTCHAR D
ENCODING 68
SWIDTH 800 0
DWIDTH 12 0
BBX 10 10 1 0
BITMAP
FE00
4180
4080
4040
4040
4040
4040
4080
4180
FE00
ENDCHAR

STARTCHAR E
ENCODING 69
SWIDTH 720 0
DWIDTH 11 0
BBX 9 10 1 0
BITMAP
FF00
4180
4080
4400
7C00
4400
4000
4080
4180
FF00
ENDCHAR

STARTCHAR F
ENCODING 70
SWIDTH 640 0
DWIDTH 10 0
BBX 8 10 1 0
BITMAP
FE
43
41
44
7C
44
40
40
40
E0
ENDCHAR

STARTCHAR G
ENCODING 71
SWIDTH 800 0
DWIDTH 12 0
BBX 11 10 1 0
BITMAP
1F80
60C0
4040
8000
8000
80E0
8040
4040
60C0
1F40
ENDCHAR

STARTCHAR H
ENCODING 72
SWIDTH 800 0
DWIDTH 12 0
BBX 10 10 1 0
BITMAP
E1C0
4080
4080
4080
7F80
4080
4080
4080
4080
E1C0
ENDCHAR

STARTCHAR I
ENCODING 73
SWIDTH 340 0
DWIDTH 5 0
BBX 3 10 1 0
BITMAP
E0
40
40
40
40
40
40
40
40
E0
ENDCHAR

STARTCHAR J
ENCODING 74
SWIDTH 600 0
DWIDTH 9 0
BBX 7 10 1 0
BITMAP
0E
04
04
04
04
04
04
84
C4
78
ENDCHAR

STARTCHAR K
ENCODING 75
SWIDTH 720 0
DWIDTH 11 0
BBX 10 10 1 0
BITMAP
E380
4200
4400
4800
5800
6800
4400
4200
4100
E3C0
ENDCHAR

STARTCHAR L
ENCODING 76
SWIDTH 600 0
DWIDTH 9 0
BBX 8 10 1 0
BITMAP
E0
40
40
40
40
40
40
41
43
FE
ENDCHAR

STARTCHAR M
ENCODING 77
SWIDTH 920 0
DWIDTH 14 0
BBX 12 10 1 0
BITMAP
E070
6060
50A0
50A0
50A0
4920
4920
4920
4620
E670
ENDCHAR

STARTCHAR N
ENCODING 78
SWIDTH 740 0
DWIDTH 11 0
BBX 9 10 1 0
BITMAP
C380
6100
5100
5100
4900
4500
4500
4300
4300
E100
ENDCHAR

STARTCHAR O
ENCODING 79
SWIDTH 800 0
DWIDTH 12 0
BBX 10 10 1 0
BITMAP
1E00
6180
4080
8040
8040
8040
8040
4080
6180
1E00
ENDCHAR

STARTCHAR P
ENCODING 80
SWIDTH 620 0
DWIDTH 9 0
BBX 8 10 1 0
BITMAP
FC
42
41
41
42
7C
40
40
40
E0
ENDCHAR

STARTCHAR Q
ENCODING 81
SWIDTH 820 0
DWIDTH 12 0
BBX 10 13 1 -3
BITMAP
1E00
6180
4080
8040
8040
8040
8040
40C0
6180
1E00
0400
0640
0380
ENDCHAR

STARTCHAR R
ENCODING 82
SWIDTH 720 0
DWIDTH 11 0
BBX 9 10 1 0
BITMAP
FE00
4100
4080
4100
7E00
4800
4400
4400
4200
E380
ENDCHAR

STARTCHAR S
ENCODING 83
SWIDTH 660 0
DWIDTH 10 0
BBX 8 10 1 0
BITMAP
7E
83
81
80
78
0E
01
81
C1
7E
ENDCHAR

STARTCHAR T
ENCODING 84
SWIDTH 620 0
DWIDTH 9 0
BBX 9 10 0 0
BITMAP
7F00
C980
8880
0800
0800
0800
0800
0800
0800
1C00
ENDCHAR

STARTCHAR U
ENCODING 85
SWIDTH 780 0
DWIDTH 12 0
BBX 10 10 1 0
BITMAP
E1C0
4080
4080
4080
4080
4080
4080
4080
2100
1E00
ENDCHAR

STARTCHAR V
ENCODING 86
SWIDTH 700 0
DWIDTH 10 0
BBX 10 10 0 0
BITMAP
E1C0
4080
4080
2100
2100
2100
1200
1200
0C00
0C00
ENDCHAR

STARTCHAR W
ENCODING 87
SWIDTH 960 0
DWIDTH 13 0
BBX 13 10 0 0
BITMAP
E738
4210
4210
2220
2520
2520
1540
18C0
0880
0880
ENDCHAR

STARTCHAR X
ENCODING 88
SWIDTH 720 0
DWIDTH 11 0
BBX 9 10 1 0
BITMAP
E380
4100
2200
1400
0800
1400
2200
2200
4100
E380
ENDCHAR

STARTCHAR Y
ENCODING 89
SWIDTH 640 0
DWIDTH 11 0
BBX 9 10 1 0
BITMAP
E380
4100
2200
2200
1400
1C00
0800
0800
0800
1C00
ENDCHAR

STARTCHAR Z
ENCODING 90
SWIDTH 640 0
DWIDTH 10 0
BBX 8 10 1 0
BITMAP
7F
C1
82
04
08
10
20
41
83
FE
ENDCHAR

STARTCHAR bracketleft
ENCODING 91
SWIDTH 300 0
DWIDTH 5 0
BBX 2 14 2 -3
BITMAP
C0
80
80
80
80
80
80
80
80
80
80
80
80
C0
ENDCHAR

STARTCHAR backslash
ENCODING 92
SWIDTH 600 0
DWIDTH 9 0
BBX 5 14 2 -3
BITMAP
80
80
80
40
40
40
20
20
10
10
10
08
08
08
ENDCHAR

STARTCHAR bracketright
ENCODING 93
SWIDTH 300 0
DWIDTH 5 0
BBX 2 14 1 -3
BITMAP
C0
40
40
40
40
40
40
40
40
40
40
40
40
C0
ENDCHAR

STARTCHAR asciicircum
ENCODING 94
SWIDTH 600 0
DWIDTH 9 0
BBX 7 6 1 4
BITMAP
10
28
6C
44
82
82
ENDCHAR

STARTCHAR underscore
ENCODING 95
SWIDTH 500 0
DWIDTH 8 0
BBX 8 1 0 -2
BITMAP
FF
ENDCHAR

STARTCHAR quoteleft
ENCODING 96
SWIDTH 220 0
DWIDTH 3 0
BBX 3 5 0 6
BITMAP
20
40
80
80
C0
ENDCHAR

STARTCHAR a
ENCODING 97
SWIDTH 580 0
DWIDTH 8 0
BBX 8 7 1 0
BITMAP
78
C4
04
7C
84
84
7B
ENDCHAR

STARTCHAR b
ENCODING 98
SWIDTH 620 0
DWIDTH 9 0
BBX 8 11 1 0
BITMAP
40
C0
40
40
5C
62
41
41
41
62
5C
ENDCHAR

STARTCHAR c
ENCODING 99
SWIDTH 520 0
DWIDTH 8 0
BBX 7 7 1 0
BITMAP
3C
46
80
80
80
42
3C
ENDCHAR

STARTCHAR d
ENCODING 100
SWIDTH 620 0
DWIDTH 9 0
BBX 8 11 1 0
BITMAP
02
06
02
02
3A
46
82
82
82
46
3B
ENDCHAR

STARTCHAR e
ENCODING 101
SWIDTH 520 0
DWIDTH 8 0
BBX 7 7 1 0
BITMAP
3C
42
FE
80
80
42
3C
ENDCHAR

STARTCHAR f
ENCODING 102
SWIDTH 320 0
DWIDTH 5 0
BBX 5 11 1 0
BITMAP
30
58
40
40
F0
40
40
40
40
40
E0
ENDCHAR

STARTCHAR g
ENCODING 103
SWIDTH 540 0
DWIDTH 8 0
BBX 7 10 1 -3
BITMAP
7A
84
84
84
78
80
7C
82
82
7C
ENDCHAR

STARTCHAR h
ENCODING 104
SWIDTH 660 0
DWIDTH 10 0
BBX 9 11 1 0
BITMAP
4000
C000
4000
4000
5E00
6100
4100
4100
4100
4100
E380
ENDCHAR

STARTCHAR i
ENCODING 105
SWIDTH 300 0
DWIDTH 4 0
BBX 3 11 1 0
BITMAP
40
40
00
00
40
C0
40
40
40
40
E0
ENDCHAR

STARTCHAR j
ENCODING 106
SWIDTH 300 0
DWIDTH 5 0
BBX 4 14 0 -3
BITMAP
10
10
00
00
10
30
10
10
10
10
10
90
90
60
ENDCHAR

STARTCHAR k
ENCODING 107
SWIDTH 620 0
DWIDTH 9 0
BBX 8 11 1 0
BITMAP
40
C0
40
40
5E
48
50
70
48
44
E7
ENDCHAR

STARTCHAR l
ENCODING 108
SWIDTH 300 0
DWIDTH 4 0
BBX 3 11 1 0
BITMAP
40
C0
40
40
40
40
40
40
40
40
E0
ENDCHAR

STARTCHAR m
ENCODING 109
SWIDTH 940 0
DWIDTH 14 0
BBX 13 7 1 0
BITMAP
5DE0
E210
4210
4210
4210
4210
E738
ENDCHAR

STARTCHAR n
ENCODING 110
SWIDTH 660 0
DWIDTH 10 0
BBX 9 7 1 0
BITMAP
5E00
E100
4100
4100
4100
4100
E380
ENDCHAR

STARTCHAR o
ENCODING 111
SWIDTH 560 0
DWIDTH 8 0
BBX 7 7 1 0
BITMAP
38
44
82
82
82
44
38
ENDCHAR

STARTCHAR p
ENCODING 112
SWIDTH 620 0
DWIDTH 9 0
BBX 8 10 1 -3
BITMAP
5C
E2
41
41
41
62
5C
40
40
E0
ENDCHAR

STARTCHAR q
ENCODING 113
SWIDTH 580 0
DWIDTH 9 0
BBX 8 10 1 -3
BITMAP
3A
46
82
82
82
46
3A
02
02
07
ENDCHAR

STARTCHAR r
ENCODING 114
SWIDTH 440 0
DWIDTH 7 0
BBX 6 7 1 0
BITMAP
5C
E0
40
40
40
40
E0
ENDCHAR

STARTCHAR s
ENCODING 115
SWIDTH 520 0
DWIDTH 7 0
BBX 6 7 1 0
BITMAP
78
8C
80
78
04
C4
78
ENDCHAR

STARTCHAR t
ENCODING 116
SWIDTH 380 0
DWIDTH 6 0
BBX 4 10 1 0
BITMAP
40
40
40
F0
40
40
40
40
40
30
ENDCHAR

STARTCHAR u
ENCODING 117
SWIDTH 680 0
DWIDTH 10 0
BBX 9 7 1 0
BITMAP
C700
4100
4100
4100
4100
4300
3D80
ENDCHAR

STARTCHAR v
ENCODING 118
SWIDTH 520 0
DWIDTH 9 0
BBX 8 7 1 0
BITMAP
E7
42
42
24
24
18
18
ENDCHAR

STARTCHAR w
ENCODING 119
SWIDTH 780 0
DWIDTH 13 0
BBX 12 7 1 0
BITMAP
E670
4620
4620
2940
2940
1180
1080
ENDCHAR

STARTCHAR x
ENCODING 120
SWIDTH 560 0
DWIDTH 8 0
BBX 7 7 1 0
BITMAP
EE
44
28
10
28
44
EE
ENDCHAR

STARTCHAR y
ENCODING 121
SWIDTH 540 0
DWIDTH 9 0
BBX 8 10 1 -3
BITMAP
E7
42
42
24
24
18
18
10
D0
60
ENDCHAR

STARTCHAR z
ENCODING 122
SWIDTH 480 0
DWIDTH 8 0
BBX 7 7 1 0
BITMAP
7E
C2
84
18
22
46
FC
ENDCHAR

STARTCHAR braceleft
ENCODING 123
SWIDTH 280 0
DWIDTH 4 0
BBX 5 14 0 -3
BITMAP
18
20
20
20
20
40
80
80
40
20
20
20
20
18
ENDCHAR

STARTCHAR bar
ENCODING 124
SWIDTH 600 0
DWIDTH 9 0
BBX 1 14 4 -3
BITMAP
80
80
80
80
80
80
80
80
80
80
80
80
80
80
ENDCHAR

STARTCHAR braceright
ENCODING 125
SWIDTH 280 0
DWIDTH 4 0
BBX 5 14 0 -3
BITMAP
C0
20
20
20
20
10
08
08
10
20
20
20
20
C0
ENDCHAR

STARTCHAR asciitilde
ENCODING 126
SWIDTH 600 0
DWIDTH 9 0
BBX 7 2 1 4
BITMAP
F2
9E
ENDCHAR

STARTCHAR space
ENCODING 160
SWIDTH 320 0
DWIDTH 6 0
BBX 0 0 0 0
BITMAP
ENDCHAR

STARTCHAR Aogonek
ENCODING 161
SWIDTH 680 0
DWIDTH 10 0
BBX 11 12 0 -2
BITMAP
0C00
0C00
1200
1200
2100
3F00
2100
4080
4080
E1C0
0080
00E0
ENDCHAR

STARTCHAR breve
ENCODING 162
SWIDTH 460 0
DWIDTH 7 0
BBX 6 2 1 8
BITMAP
CC
78
ENDCHAR

STARTCHAR Lslash
ENCODING 163
SWIDTH 600 0
DWIDTH 9 0
BBX 8 10 1 0
BITMAP
E0
40
50
60
40
C0
40
41
43
FE
ENDCHAR

STARTCHAR currency
ENCODING 164
SWIDTH 600 0
DWIDTH 9 0
BBX 7 7 1 2
BITMAP
BA
44
82
82
82
44
BA
ENDCHAR

STARTCHAR Lcaron
ENCODING 165
SWIDTH 600 0
DWIDTH 9 0
BBX 8 10 1 0
BITMAP
EC
4C
44
48
40
40
40
41
43
FE
ENDCHAR

STARTCHAR Sacute
ENCODING 166
SWIDTH 660 0
DWIDTH 10 0
BBX 8 13 1 0
BITMAP
0C
18
00
7E
83
81
80
78
0E
01
81
C1
7E
ENDCHAR

STARTCHAR section
ENCODING 167
SWIDTH 520 0
DWIDTH 8 0
BBX 6 14 1 -3
BITMAP
78
8C
84
C0
78
8C
84
84
C4
78
0C
84
C4
78
ENDCHAR

STARTCHAR dieresis
ENCODING 168
SWIDTH 420 0
DWIDTH 6 0
BBX 5 2 1 8
BITMAP
D8
D8
ENDCHAR

STARTCHAR Scaron
ENCODING 169
SWIDTH 660 0
DWIDTH 10 0
BBX 8 13 1 0
BITMAP
36
1C
00
7E
83
81
80
78
0E
01
81
C1
7E
ENDCHAR

STARTCHAR Scommaaccent
ENCODING 170
SWIDTH 660 0
DWIDTH 10 0
BBX 8 14 1 -4
BITMAP
7E
83
81
80
78
0E
01
81
C1
7E
00
0C
04
08
ENDCHAR

STARTCHAR Tcaron
ENCODING 171
SWIDTH 620 0
DWIDTH 9 0
BBX 9 13 0 0
BITMAP
3600
1C00
0000
7F00
C980
8880
0800
0800
0800
0800
0800
0800
1C00
ENDCHAR

STARTCHAR Zacute
ENCODING 172
SWIDTH 640 0
DWIDTH 10 0
BBX 8 13 1 0
BITMAP
0C
18
00
7F
C1
82
04
08
10
20
41
83
FE
ENDCHAR

STARTCHAR hyphen
ENCODING 173
SWIDTH 400 0
DWIDTH 6 0
BBX 4 1 1 3
BITMAP
F0
ENDCHAR

STARTCHAR Zcaron
ENCODING 174
SWIDTH 640 0
DWIDTH 10 0
BBX 8 13 1 0
BITMAP
36
1C
00
7F
C1
82
04
08
10
20
41
83
FE
ENDCHAR

STARTCHAR Zdotaccent
ENCODING 175
SWIDTH 640 0
DWIDTH 10 0
BBX 8 13 1 0
BITMAP
18
18
00
7F
C1
82
04
08
10
20
41
83
FE
ENDCHAR

STARTCHAR degree
ENCODING 176
SWIDTH 400 0
DWIDTH 6 0
BBX 4 4 1 6
BITMAP
60
90
90
60
ENDCHAR

STARTCHAR aogonek
ENCODING 177
SWIDTH 580 0
DWIDTH 8 0
BBX 8 9 1 -2
BITMAP
78
C4
04
7C
84
84
7F
04
07
ENDCHAR

STARTCHAR ogonek
ENCODING 178
SWIDTH 320 0
DWIDTH 5 0
BBX 3 2 1 -2
BITMAP
80
E0
ENDCHAR

STARTCHAR lslash
ENCODING 179
SWIDTH 320 0
DWIDTH 4 0
BBX 3 11 1 0
BITMAP
40
C0
40
40
60
40
C0
40
40
40
E0
ENDCHAR

STARTCHAR acute
ENCODING 180
SWIDTH 340 0
DWIDTH 5 0
BBX 3 2 1 8
BITMAP
60
C0
ENDCHAR

STARTCHAR lcaron
ENCODING 181
SWIDTH 357 0
DWIDTH 5 0
BBX 5 11 1 0
BITMAP
58
D8
48
50
40
40
40
40
40
40
E0
ENDCHAR

STARTCHAR sacute
ENCODING 182
SWIDTH 520 0
DWIDTH 7 0
BBX 6 10 1 0
BITMAP
18
30
00
78
8C
80
78
04
C4
78
ENDCHAR

STARTCHAR caron
ENCODING 183
SWIDTH 420 0
DWIDTH 6 0
BBX 5 2 1 8
BITMAP
D8
70
ENDCHAR

STARTCHAR commaaccent
ENCODING 184
SWIDTH 333 0
DWIDTH 5 0
BBX 2 3 1 -4
BITMAP
C0
40
80
ENDCHAR

STARTCHAR scaron
ENCODING 185
SWIDTH 520 0
DWIDTH 7 0
BBX 6 10 1 0
BITMAP
6C
38
00
78
8C
80
78
04
C4
78
ENDCHAR

STARTCHAR scommaaccent
ENCODING 186
SWIDTH 520 0
DWIDTH 7 0
BBX 6 11 1 -4
BITMAP
78
8C
80
78
04
C4
78
00
30
10
20
ENDCHAR

STARTCHAR tcaron
ENCODING 187
SWIDTH 398 0
DWIDTH 6 0
BBX 5 11 1 0
BITMAP
18
58
48
50
F0
40
40
40
40
40
30
ENDCHAR

STARTCHAR zacute
ENCODING 188
SWIDTH 480 0
DWIDTH 8 0
BBX 7 10 1 0
BITMAP
0C
18
00
7E
C2
84
18
22
46
FC
ENDCHAR

STARTCHAR hungarumlaut
ENCODING 189
SWIDTH 380 0
DWIDTH 6 0
BBX 7 2 0 8
BITMAP
66
CC
ENDCHAR

STARTCHAR zcaron
ENCODING 190
SWIDTH 480 0
DWIDTH 8 0
BBX 7 10 1 0
BITMAP
36
1C
00
7E
C2
84
18
22
46
FC
ENDCHAR

STARTCHAR zdotaccent
ENCODING 191
SWIDTH 480 0
DWIDTH 8 0
BBX 7 10 1 0
BITMAP
18
18
00
7E
C2
84
18
22
46
FC
ENDCHAR

STARTCHAR Racute
ENCODING 192
SWIDTH 720 0
DWIDTH 11 0
BBX 9 13 1 0
BITMAP
0C00
1800
0000
FE00
4100
4080
4100
7E00
4800
4400
4400
4200
E380
ENDCHAR

STARTCHAR Aacute
ENCODING 193
SWIDTH 680 0
DWIDTH 10 0
BBX 10 13 0 0
BITMAP
0600
0C00
0000
0C00
0C00
1200
1200
2100
3F00
2100
4080
4080
E1C0
ENDCHAR

STARTCHAR Acircumflex
ENCODING 194
SWIDTH 680 0
DWIDTH 10 0
BBX 10 13 0 0
BITMAP
0E00
1B00
0000
0C00
0C00
1200
1200
2100
3F00
2100
4080
4080
E1C0
ENDCHAR

STARTCHAR Abreve
ENCODING 195
SWIDTH 680 0
DWIDTH 10 0
BBX 10 13 0 0
BITMAP
3300
1E00
0000
0C00
0C00
1200
1200
2100
3F00
2100
4080
4080
E1C0
ENDCHAR

STARTCHAR Adieresis
ENCODING 196
SWIDTH 680 0
DWIDTH 10 0
BBX 10 13 0 0
BITMAP
3300
3300
0000
0C00
0C00
1200
1200
2100
3F00
2100
4080
4080
E1C0
ENDCHAR

STARTCHAR Lacute
ENCODING 197
SWIDTH 600 0
DWIDTH 9 0
BBX 8 13 1 0
BITMAP
30
60
00
E0
40
40
40
40
40
40
41
43
FE
ENDCHAR

STARTCHAR Cacute
ENCODING 198
SWIDTH 740 0
DWIDTH 11 0
BBX 9 13 1 0
BITMAP
0600
0C00
0000
1F00
6180
4080
8000
8000
8000
8000
4080
6100
1E00
ENDCHAR

STARTCHAR Ccedilla
ENCODING 199
SWIDTH 740 0
DWIDTH 11 0
BBX 9 13 1 -3
BITMAP
1F00
6180
4080
8000
8000
8000
8000
4080
6100
1E00
0400
0200
0C00
ENDCHAR

STARTCHAR Ccaron
ENCODING 200
SWIDTH 740 0
DWIDTH 11 0
BBX 9 13 1 0
BITMAP
1B00
0E00
0000
1F00
6180
4080
8000
8000
8000
8000
4080
6100
1E00
ENDCHAR

STARTCHAR Eacute
ENCODING 201
SWIDTH 720 0
DWIDTH 11 0
BBX 9 13 1 0
BITMAP
0C00
1800
0000
FF00
4180
4080
4400
7C00
4400
4000
4080
4180
FF00
ENDCHAR

STARTCHAR Eogonek
ENCODING 202
SWIDTH 720 0
DWIDTH 11 0
BBX 9 12 1 -2
BITMAP
FF00
4180
4080
4400
7C00
4400
4000
4080
4180
FF00
0200
0380
ENDCHAR

STARTCHAR Edieresis
ENCODING 203
SWIDTH 720 0
DWIDTH 11 0
BBX 9 13 1 0
BITMAP
3600
3600
0000
FF00
4180
4080
4400
7C00
4400
4000
4080
4180
FF00
ENDCHAR

STARTCHAR Ecaron
ENCODING 204
SWIDTH 720 0
DWIDTH 11 0
BBX 9 13 1 0
BITMAP
3600
1C00
0000
FF00
4180
4080
4400
7C00
4400
4000
4080
4180
FF00
ENDCHAR

STARTCHAR Iacute
ENCODING 205
SWIDTH 340 0
DWIDTH 5 0
BBX 3 13 1 0
BITMAP
60
C0
00
E0
40
40
40
40
40
40
40
40
E0
ENDCHAR

STARTCHAR Icircumflex
ENCODING 206
SWIDTH 340 0
DWIDTH 5 0
BBX 5 13 0 0
BITMAP
70
D8
00
70
20
20
20
20
20
20
20
20
70
ENDCHAR

STARTCHAR Dcaron
ENCODING 207
SWIDTH 800 0
DWIDTH 12 0
BBX 10 13 1 0
BITMAP
3600
1C00
0000
FE00
4180
4080
4040
4040
4040
4040
4080
4180
FE00
ENDCHAR

STARTCHAR Dcroat
ENCODING 208
SWIDTH 800 0
DWIDTH 12 0
BBX 10 10 1 0
BITMAP
FE00
4180
4080
4040
F040
4040
4040
4080
4180
FE00
ENDCHAR

STARTCHAR Nacute
ENCODING 209
SWIDTH 740 0
DWIDTH 11 0
BBX 9 13 1 0
BITMAP
0C00
1800
0000
C380
6100
5100
5100
4900
4500
4500
4300
4300
E100
ENDCHAR

STARTCHAR Ncaron
ENCODING 210
SWIDTH 740 0
DWIDTH 11 0
BBX 9 13 1 0
BITMAP
3600
1C00
0000
C380
6100
5100
5100
4900
4500
4500
4300
4300
E100
ENDCHAR

STARTCHAR Oacute
ENCODING 211
SWIDTH 800 0
DWIDTH 12 0
BBX 10 13 1 0
BITMAP
0600
0C00
0000
1E00
6180
4080
8040
8040
8040
8040
4080
6180
1E00
ENDCHAR

STARTCHAR Ocircumflex
ENCODING 212
SWIDTH 800 0
DWIDTH 12 0
BBX 10 13 1 0
BITMAP
1E00
3300
0000
1E00
6180
4080
8040
8040
8040
8040
4080
6180
1E00
ENDCHAR

STARTCHAR Ohungarumlaut
ENCODING 213
SWIDTH 800 0
DWIDTH 12 0
BBX 10 13 1 0
BITMAP
0D80
1B00
0000
1E00
6180
4080
8040
8040
8040
8040
4080
6180
1E00
ENDCHAR

STARTCHAR Odieresis
ENCODING 214
SWIDTH 800 0
DWIDTH 12 0
BBX 10 13 1 0
BITMAP
3300
3300
0000
1E00
6180
4080
8040
8040
8040
8040
4080
6180
1E00
ENDCHAR

STARTCHAR multiply
ENCODING 215
SWIDTH 600 0
DWIDTH 9 0
BBX 6 6 2 2
BITMAP
84
48
30
30
48
84
ENDCHAR

STARTCHAR Rcaron
ENCODING 216
SWIDTH 720 0
DWIDTH 11 0
BBX 10 13 1 0
BITMAP
3600
1C00
0000
FE00
4100
4080
4100
7E00
4C00
4600
4200
4300
E1C0
ENDCHAR

STARTCHAR Uring
ENCODING 217
SWIDTH 780 0
DWIDTH 12 0
BBX 10 14 1 0
BITMAP
0400
0A00
0400
0000
E1C0
4080
4080
4080
4080
4080
4080
4080
2100
1E00
ENDCHAR

STARTCHAR Uacute
ENCODING 218
SWIDTH 780 0
DWIDTH 12 0
BBX 10 13 1 0
BITMAP
0600
0C00
0000
E1C0
4080
4080
4080
4080
4080
4080
4080
2100
1E00
ENDCHAR

STARTCHAR Uhungarumlaut
ENCODING 219
SWIDTH 780 0
DWIDTH 12 0
BBX 10 13 1 0
BITMAP
1980
3300
0000
E1C0
4080
4080
4080
4080
4080
4080
4080
2100
1E00
ENDCHAR

STARTCHAR Udieresis
ENCODING 220
SWIDTH 780 0
DWIDTH 12 0
BBX 10 13 1 0
BITMAP
1B00
1B00
0000
E1C0
4080
4080
4080
4080
4080
4080
4080
2100
1E00
ENDCHAR

STARTCHAR Yacute
ENCODING 221
SWIDTH 640 0
DWIDTH 11 0
BBX 9 13 1 0
BITMAP
0600
0C00
0000
E380
4100
2200
2200
1400
1C00
0800
0800
0800
1C00
ENDCHAR

STARTCHAR Tcommaaccent
ENCODING 222
SWIDTH 620 0
DWIDTH 9 0
BBX 9 14 0 -4
BITMAP
7F00
C980
8880
0800
0800
0800
0800
0800
0800
1C00
0000
1800
0800
1000
ENDCHAR

STARTCHAR germandbls
ENCODING 223
SWIDTH 660 0
DWIDTH 10 0
BBX 8 11 1 0
BITMAP
38
64
46
48
D0
58
46
43
41
51
CE
ENDCHAR

STARTCHAR racute
ENCODING 224
SWIDTH 440 0
DWIDTH 7 0
BBX 6 10 1 0
BITMAP
18
30
00
5C
E0
40
40
40
40
E0
ENDCHAR

STARTCHAR aacute
ENCODING 225
SWIDTH 580 0
DWIDTH 8 0
BBX 8 10 1 0
BITMAP
18
30
00
78
C4
04
7C
84
84
7B
ENDCHAR

STARTCHAR acircumflex
ENCODING 226
SWIDTH 580 0
DWIDTH 8 0
BBX 8 10 1 0
BITMAP
38
6C
00
78
C4
04
7C
84
84
7B
ENDCHAR

STARTCHAR abreve
ENCODING 227
SWIDTH 580 0
DWIDTH 8 0
BBX 8 10 1 0
BITMAP
66
3C
00
78
C4
04
7C
84
84
7B
ENDCHAR

STARTCHAR adieresis
ENCODING 228
SWIDTH 580 0
DWIDTH 8 0
BBX 8 10 1 0
BITMAP
6C
6C
00
78
C4
04
7C
84
84
7B
ENDCHAR

STARTCHAR lacute
ENCODING 229
SWIDTH 300 0
DWIDTH 4 0
BBX 3 14 1 0
BITMAP
60
C0
00
40
C0
40
40
40
40
40
40
40
40
E0
ENDCHAR

STARTCHAR cacute
ENCODING 230
SWIDTH 520 0
DWIDTH 8 0
BBX 7 10 1 0
BITMAP
0C
18
00
3C
46
80
80
80
42
3C
ENDCHAR

STARTCHAR ccedilla
ENCODING 231
SWIDTH 520 0
DWIDTH 8 0
BBX 7 10 1 -3
BITMAP
3C
46
80
80
80
42
3C
10
08
30
ENDCHAR

STARTCHAR ccaron
ENCODING 232
SWIDTH 520 0
DWIDTH 8 0
BBX 7 10 1 0
BITMAP
6C
38
00
3C
46
80
80
80
42
3C
ENDCHAR

STARTCHAR eacute
ENCODING 233
SWIDTH 520 0
DWIDTH 8 0
BBX 7 10 1 0
BITMAP
0C
18
00
3C
42
FE
80
80
42
3C
ENDCHAR

STARTCHAR eogonek
ENCODING 234
SWIDTH 520 0
DWIDTH 8 0
BBX 7 9 1 -2
BITMAP
3C
42
FE
80
80
42
3C
08
06
ENDCHAR

STARTCHAR edieresis
ENCODING 235
SWIDTH 520 0
DWIDTH 8 0
BBX 7 10 1 0
BITMAP
66
66
00
3C
42
FE
80
80
42
3C
ENDCHAR

STARTCHAR ecaron
ENCODING 236
SWIDTH 520 0
DWIDTH 8 0
BBX 7 10 1 0
BITMAP
6C
38
00
3C
42
FE
80
80
42
3C
ENDCHAR

STARTCHAR iacute
ENCODING 237
SWIDTH 300 0
DWIDTH 4 0
BBX 3 10 1 0
BITMAP
60
C0
00
40
C0
40
40
40
40
E0
ENDCHAR

STARTCHAR icircumflex
ENCODING 238
SWIDTH 300 0
DWIDTH 4 0
BBX 5 10 0 0
BITMAP
70
D8
00
20
60
20
20
20
20
70
ENDCHAR

STARTCHAR dcaron
ENCODING 239
SWIDTH 667 0
DWIDTH 10 0
BBX 10 11 1 0
BITMAP
02C0
06C0
0240
0280
3A00
4600
8200
8200
8200
4600
3B00
ENDCHAR

STARTCHAR dcroat
ENCODING 240
SWIDTH 620 0
DWIDTH 9 0
BBX 8 11 1 0
BITMAP
02
0F
02
02
3A
46
82
82
82
46
3B
ENDCHAR

STARTCHAR nacute
ENCODING 241
SWIDTH 660 0
DWIDTH 10 0
BBX 9 10 1 0
BITMAP
0C00
1800
0000
5E00
E100
4100
4100
4100
4100
E380
ENDCHAR

STARTCHAR ncaron
ENCODING 242
SWIDTH 660 0
DWIDTH 10 0
BBX 9 10 1 0
BITMAP
3600
1C00
0000
5E00
E100
4100
4100
4100
4100
E380
ENDCHAR

STARTCHAR oacute
ENCODING 243
SWIDTH 560 0
DWIDTH 8 0
BBX 7 10 1 0
BITMAP
18
30
00
38
44
82
82
82
44
38
ENDCHAR

STARTCHAR ocircumflex
ENCODING 244
SWIDTH 560 0
DWIDTH 8 0
BBX 7 10 1 0
BITMAP
38
6C
00
38
44
82
82
82
44
38
ENDCHAR

STARTCHAR ohungarumlaut
ENCODING 245
SWIDTH 560 0
DWIDTH 8 0
BBX 7 10 1 0
BITMAP
66
CC
00
38
44
82
82
82
44
38
ENDCHAR

STARTCHAR odieresis
ENCODING 246
SWIDTH 560 0
DWIDTH 8 0
BBX 7 10 1 0
BITMAP
6C
6C
00
38
44
82
82
82
44
38
ENDCHAR

STARTCHAR divide
ENCODING 247
SWIDTH 600 0
DWIDTH 9 0
BBX 7 5 1 3
BITMAP
10
00
FE
00
10
ENDCHAR

STARTCHAR rcaron
ENCODING 248
SWIDTH 440 0
DWIDTH 7 0
BBX 6 10 1 0
BITMAP
6C
38
00
5C
E0
40
40
40
40
E0
ENDCHAR

STARTCHAR uring
ENCODING 249
SWIDTH 680 0
DWIDTH 10 0
BBX 9 11 1 0
BITMAP
0800
1400
0800
0000
C300
4100
4100
4100
4100
4300
3D80
ENDCHAR

STARTCHAR uacute
ENCODING 250
SWIDTH 680 0
DWIDTH 10 0
BBX 9 10 1 0
BITMAP
0C00
1800
0000
C300
4100
4100
4100
4100
4300
3D80
ENDCHAR

STARTCHAR uhungarumlaut
ENCODING 251
SWIDTH 680 0
DWIDTH 10 0
BBX 9 10 1 0
BITMAP
3300
6600
0000
C300
4100
4100
4100
4100
4300
3D80
ENDCHAR

STARTCHAR udieresis
ENCODING 252
SWIDTH 680 0
DWIDTH 10 0
BBX 9 10 1 0
BITMAP
3600
3600
0000
C300
4100
4100
4100
4100
4300
3D80
ENDCHAR

STARTCHAR yacute
ENCODING 253
SWIDTH 540 0
DWIDTH 9 0
BBX 8 13 1 -3
BITMAP
0C
18
00
E7
42
42
24
24
18
18
10
D0
60
ENDCHAR

STARTCHAR tcommaaccent
ENCODING 254
SWIDTH 380 0
DWIDTH 6 0
BBX 4 14 1 -4
BITMAP
40
40
40
F0
40
40
40
40
40
30
00
60
20
40
ENDCHAR

STARTCHAR dotaccent
ENCODING 255
SWIDTH 260 0
DWIDTH 4 0
BBX 2 2 1 8
BITMAP
C0
C0
ENDCHAR
ENDFONT
